# xmcd
#
# Track frame offsets: 
#        187
#        25907
#        55060
#        83270
#        104732
#        132290
#        168765
#        195125
#
# Disc length: 2955 seconds
#
# Revision: 1
# Processed by: cddbd v1.5.2PL0 Copyright (c) Steve Scherf et al.
# Submitted via: ExactAudioCopy v1.0b3
#
DISCID=550b8908
DTITLE=Bill Evans [piano] - Bill Evans Trio "Live"
DYEAR=1964
DGENRE=Jazz
TTITLE0=Nardis
TTITLE1=Someday My Prince Will Come
TTITLE2=Stella By Starlight
TTITLE3=How My Heart Sings
TTITLE4='Round Midnight
TTITLE5=What Kind Of Fool Am I ?
TTITLE6=The Boy Next Door
TTITLE7=How Deep Is The Ocean (How High Is The Sky)
EXTD=
EXTT0=
EXTT1=
EXTT2=
EXTT3=
EXTT4=
EXTT5=
EXTT6=
EXTT7=
PLAYORDER=
